<svg xmlns="http://www.w3.org/2000/svg" xmlns:xlink="http://www.w3.org/1999/xlink" width="701" height="353" viewBox="0 0 701 353">
  <defs>
    <clipPath id="clip-path">
      <rect id="Rectangle_1947" data-name="Rectangle 1947" width="725" height="372" transform="translate(-5 306)" fill="#fff"/>
    </clipPath>
    <clipPath id="clip-Lead-banner">
      <rect width="701" height="353"/>
    </clipPath>
  </defs>
  <g id="Lead-banner" clip-path="url(#clip-Lead-banner)">
    <g id="Group_7330" data-name="Group 7330" transform="translate(5 -325)">
      <g id="Mask_Group_64" data-name="Mask Group 64" clip-path="url(#clip-path)">
        <path id="Path_11681" data-name="Path 11681" d="M922.134,736.688s95.741-102.795,16.191-214.085c-70.581-98.744-152.873-91.994-213.248-51.923-25.715,17.067-99.853,2.1-162.954-98.373C476.071,235.286,177.78,318.39,232.168,529.2c26.32,102.018-80.1,105.726-25.876,207.7Z" transform="translate(-278.281 40.64)" fill="#06005a" opacity="0.1"/>
      </g>
      <g id="Group_6243" data-name="Group 6243" transform="translate(61.539 330)">
        <g id="Group_6195" data-name="Group 6195" transform="translate(0 0)">
          <g id="Group_6194" data-name="Group 6194" transform="translate(0)">
            <path id="Path_11545" data-name="Path 11545" d="M1229.047,1541.8c22.265,5.709,52.858,10.828,43.107,29.864l-55.47-.055Z" transform="translate(-911.912 -1221.382)" fill="#e28b6d"/>
            <g id="Group_6167" data-name="Group 6167" transform="translate(0 189.264)">
              <rect id="Rectangle_1927" data-name="Rectangle 1927" width="120.006" height="175.935" rx="60.003" fill="#ff3c3c"/>
              <path id="Path_11546" data-name="Path 11546" d="M567.363,1277.729c-2.016.526-3.375,2.367-4.285,4.246a27.494,27.494,0,0,0-1.972,6.105,82.318,82.318,0,0,0-1.58,12.882,233.989,233.989,0,0,0,.27,26.082c.494,8.694,1.291,17.375,2.341,26.024q.76,6.49,1.758,12.951c.64,4.31,1.357,8.61,2.234,12.878l-.624.141c-1.044-4.248-1.937-8.531-2.738-12.83q-1.147-6.459-2.047-12.958-1.756-13-2.542-26.114a213.078,213.078,0,0,1-.03-26.263,80.9,80.9,0,0,1,1.883-13.047,28.431,28.431,0,0,1,2.271-6.249,11.724,11.724,0,0,1,1.957-2.755,6.063,6.063,0,0,1,2.963-1.718Z" transform="translate(-540.641 -1261.507)" fill="#fff" opacity="0.8"/>
            </g>
            <path id="Path_11547" data-name="Path 11547" d="M626.791,1305.093s3.4,68.858,24.77,144.609h58.405Z" transform="translate(-579.541 -1088.013)" fill="#dd9e11"/>
            <path id="Path_11548" data-name="Path 11548" d="M670.043,989.763c-14.676-7.984-18.7-27.767-7.983-40.613q1.547-1.855,3.445-3.75c16.375-16.311,6.172-32.63,3.883-70.158-2.287-37.491,39.48-47.729,39.56-47.749,1.97-.482,5.782-6.1,7.393-7.5,18.852-16.351,45.893-15.142,66.557-2.7,9.831,5.921,19.725,15.038,25.046,25.5,8.439,16.588,9.966,38.444,24.178,51.361,20.258,18.414,42.732,34.046,41.824,63.746-.323,10.549-2.963,21.7-9.393,30.154-5.6,7.37-14.139,12.314-21.843,17.082-12.521,7.749-25.741,14.6-39.721,19.2-13.536,4.456-27.222,8.462-40.946,12.282q-1.946.541-3.893,1.075Z" transform="translate(-596 -807.839)" fill="#000236"/>
            <path id="Path_11549" data-name="Path 11549" d="M906.941,1183.554c49.054-16.842,75.7,38.063,112.334,145.193l35.25,9.511-4.1,38.151-12.861,2.681-105.017.442Z" transform="translate(-737.389 -1017.844)" fill="#fc0"/>
            <path id="Path_11550" data-name="Path 11550" d="M737.847,1169.14l109.7,27.455,46.09,138.105-153.969,4.692L729.482,1237.28Z" transform="translate(-637.401 -1011.411)" fill="#fc0"/>
            <path id="Path_11551" data-name="Path 11551" d="M733.184,1305.093c26.952,27.133,20.992,66.893,44.017,70.839,15.242,2.612,58.562,8.8,79.227,17.412,4.179,1.741,15.718,10.323,13.93,17.935-1.152,4.906-16.528.976-16.528.976L738.719,1400.7l-24.378-56.4Z" transform="translate(-628.87 -1088.013)" fill="#b59100" opacity="0.3"/>
            <path id="Path_11552" data-name="Path 11552" d="M974.4,1527.411c.784-1.234,17.287-4.507,19.154-4.252,6.138.837,9.49,5.647,10.97,9.326l-24.421,12.88Z" transform="translate(-775.398 -1210.873)" fill="#102048"/>
            <path id="Path_11553" data-name="Path 11553" d="M1015.528,1304.814l2.834,6.456c.931,2.159,1.8,4.341,2.708,6.512,1.74,4.367,3.418,8.761,4.993,13.191,3.19,8.847,6.014,17.822,8.664,26.843q3.9,13.554,7.013,27.321c1,4.6,1.963,9.2,2.819,13.821q1.26,6.941,2.169,13.94l-.606.087q-1.152-6.939-2.637-13.815c-.943-4.593-1.995-9.163-3.078-13.724q-3.259-13.683-7.171-27.2c-2.562-9.02-5.412-17.956-8.421-26.836-1.486-4.447-3.1-8.85-4.731-13.246-.833-2.191-1.634-4.4-2.494-6.578l-2.622-6.529Z" transform="translate(-798.255 -1087.856)" fill="#102048"/>
            <g id="Group_6168" data-name="Group 6168" transform="translate(190.265 315.297)">
              <path id="Path_11554" data-name="Path 11554" d="M1069.082,1554.62s-4.616,5.457-19.187.142c-6.865.8-19.634.186-43.918-3.776,0,0,8.818,6.166,28.758,7.225,0,0-.851,5.872-11.362,5.61-12.649-.317-14.112-1.081-25.637-.6-2.357.1-7.487-.011-13.042-.186-9.692-.316-20.7-.83-20.7-.83l-9.6-17.167,19.165-9.179c5.883-2.3,8.818-3.1,11.678-3.5,12.376-1.757,20.191-3.154,29.064-1.626C1024.149,1532.422,1054.26,1542.408,1069.082,1554.62Z" transform="translate(-954.387 -1530.075)" fill="#f9b384"/>
            </g>
            <path id="Path_11555" data-name="Path 11555" d="M985.23,1565.684l-.535.295c-9.692-.317-20.7-.829-20.7-.829l-9.6-17.168,19.165-9.178c5.883-2.3,8.818-3.1,11.678-3.5C978.186,1538.17,972.417,1545.7,985.23,1565.684Z" transform="translate(-764.122 -1217.722)" fill="#e28b6d"/>
            <path id="Path_11556" data-name="Path 11556" d="M715.532,1182.4c-24.934-5.109-85.7-9.36-102.679,22.1-13.979,25.9,21.06,112.63,36.239,143.132,6.247,12.555,24.388,18.767,31.442,18.815l100.184-.576c-6.74-1.563-15.379-37.73,7.306-36.707l-82.972-11.558a11.367,11.367,0,0,1-7.922-4.98,23.792,23.792,0,0,1-3.3-6.711l-23.55-86.264Z" transform="translate(-569.869 -1016.88)" fill="#fc0"/>
            <path id="Path_11557" data-name="Path 11557" d="M1233.843,1596.6l-97.745-.061v-9.221h98.313Z" transform="translate(-866.506 -1247.03)" fill="#fff"/>
            <g id="Group_6169" data-name="Group 6169" transform="translate(332.011 223.77)">
              <path id="Path_11558" data-name="Path 11558" d="M1396.989,1446.217l-117.91-.036,43.008-125.761,117.91.036Z" transform="translate(-1279.079 -1320.419)" fill="#102048"/>
              <path id="Path_11559" data-name="Path 11559" d="M1457.716,1456.007c-3.613,5.773-10.368,8.142-15.52,5.61a8,8,0,0,1-.9-.491c-5.249-3.274-6.4-10.892-2.576-16.993s11.165-8.4,16.415-5.119a9.956,9.956,0,0,1,3.6,3.984A13.468,13.468,0,0,1,1457.716,1456.007Z" transform="translate(-1367.76 -1386.396)" fill="#fff"/>
              <path id="Path_11560" data-name="Path 11560" d="M1460.978,1459.622c-3.613,5.773-12.493,9.968-18.718,3.1,13.5,1.225,18.049-7.619,17.793-18.8C1464.675,1449.036,1463.641,1455.366,1460.978,1459.622Z" transform="translate(-1371.022 -1390.011)" fill="#708cd5"/>
            </g>
            <g id="Group_6170" data-name="Group 6170" transform="translate(243.711 315.636)">
              <path id="Path_11561" data-name="Path 11561" d="M1091.592,1530.851a97.9,97.9,0,0,1,14.67,3.631c4.805,1.507,9.529,3.267,14.175,5.218a131.022,131.022,0,0,1,13.636,6.531,70.63,70.63,0,0,1,12.458,8.583l-.407.494a74.06,74.06,0,0,0-6.208-4.162c-2.121-1.308-4.307-2.512-6.523-3.656-4.424-2.3-8.952-4.42-13.584-6.294-4.572-2.015-9.274-3.727-13.983-5.4q-3.537-1.245-7.123-2.342c-2.384-.746-4.792-1.43-7.22-1.97Z" transform="translate(-1085.08 -1530.851)" fill="#102048"/>
              <path id="Path_11562" data-name="Path 11562" d="M1086.99,1584.158l5.274,1.508c1.757.471,3.525.877,5.3,1.238s3.564.646,5.359.9c1.8.236,3.6.416,5.416.6l.6.06.049.521a4.946,4.946,0,0,1-.2,1.948,3.6,3.6,0,0,1-1.057,1.663,4,4,0,0,1-1.716.833,8.281,8.281,0,0,1-.9.128l-.885-.023v-.64l.792-.119c.249-.076.51-.115.742-.21a2.986,2.986,0,0,0,1.191-.774,2.534,2.534,0,0,0,.62-1.2,3.709,3.709,0,0,0,.036-1.38l.65.581a53.386,53.386,0,0,1-11.036-1.349,47.743,47.743,0,0,1-5.341-1.573,54.477,54.477,0,0,1-5.122-2.111Z" transform="translate(-1082.422 -1560.886)" fill="#102048"/>
              <path id="Path_11563" data-name="Path 11563" d="M1076.916,1555.047c4.24.542,8.5.958,12.769,1.393,4.261.47,8.533.884,12.8,1.558,4.243.679,8.461,1.449,12.682,2.216s8.436,1.547,12.64,2.4l1,.2-.426.924a12.265,12.265,0,0,1-1.085,2.266,6.446,6.446,0,0,1-.905,1.056,11.5,11.5,0,0,1-1.106.781,14.739,14.739,0,0,1-4.818,1.526,49.675,49.675,0,0,1-9.714.4c-1.61-.059-3.218-.128-4.818-.271-1.6-.117-3.2-.235-4.8-.439-3.192-.332-6.366-.783-9.536-1.246l.08-.635c3.188.262,6.364.617,9.552.8q2.388.186,4.775.291c1.592.1,3.182.129,4.771.147a56.237,56.237,0,0,0,9.434-.552,13.364,13.364,0,0,0,4.279-1.373c.31-.176.563-.407.849-.605a4.886,4.886,0,0,0,.643-.769,11.546,11.546,0,0,0,.949-2.067l.57,1.125c-8.417-1.586-16.826-3.281-25.255-4.742-4.19-.764-8.446-1.278-12.693-1.847-4.246-.59-8.5-1.131-12.734-1.911Z" transform="translate(-1076.815 -1544.484)" fill="#102048"/>
            </g>
            <path id="Path_11564" data-name="Path 11564" d="M823.622,1250.156a35.675,35.675,0,0,0,11.873,5.257,32.575,32.575,0,0,0,12.851.493,26.7,26.7,0,0,0,11.788-4.887,27.109,27.109,0,0,0,8.17-9.933l.588.253q-.681,1.529-1.4,3.058c-.547.979-1.19,1.908-1.79,2.868-.665.911-1.457,1.727-2.184,2.6-.783.817-1.676,1.526-2.513,2.294a27.013,27.013,0,0,1-12.392,5.351,32.5,32.5,0,0,1-25.371-6.839Z" transform="translate(-690.227 -1051.949)" fill="#102048"/>
            <path id="Path_11565" data-name="Path 11565" d="M757.418,1304.9l5.471,18.593,5.384,18.617,5.327,18.633,2.648,9.321,1.324,4.66a35.174,35.174,0,0,0,1.442,4.5,13.4,13.4,0,0,0,6.376,6.334,37.285,37.285,0,0,0,8.974,2.992c3.129.672,6.294,1.128,9.506,1.541l9.6,1.3,19.2,2.657,19.183,2.76-.079.608-19.247-2.282-19.234-2.386-9.613-1.222c-3.2-.4-6.433-.845-9.625-1.515a38.723,38.723,0,0,1-9.369-3.085,14.72,14.72,0,0,1-7.085-7.061,7.721,7.721,0,0,1-.467-1.191c-.133-.4-.285-.815-.382-1.2l-.652-2.333-1.3-4.667-2.608-9.332L767,1342.471l-5.13-18.689-5.041-18.714Z" transform="translate(-652.81 -1087.906)" fill="#102048"/>
            <g id="Group_6173" data-name="Group 6173" transform="translate(62.786 15.72)">
              <path id="Path_11566" data-name="Path 11566" d="M833.09,1084.242,838,1126.534c1.462,12.588-11.806,23.138-25.254,19.648-7.689-2-15.7-7.317-23.993-15.316a9.749,9.749,0,0,1-2.973-6.038l-5.237-50.971Z" transform="translate(-728.958 -973.445)" fill="#f9b384"/>
              <path id="Path_11567" data-name="Path 11567" d="M852.03,1108.234l2.675,23.029c-10.867,1.7-26.186-4.4-41.729-25.034Z" transform="translate(-747.231 -991.684)" fill="#3c1c16"/>
              <path id="Path_11568" data-name="Path 11568" d="M855.768,953.211a113.85,113.85,0,0,1-3.991,22.88c-3.636,12.1-9.978,21.857-20.843,23.664-31.991,5.318-55.174-26.484-55.174-26.484L772.041,930l19.307-33.4,43.232-1.254,21.084,24.939A206.951,206.951,0,0,1,855.768,953.211Z" transform="translate(-724.166 -872.862)" fill="#f9b384"/>
              <path id="Path_11569" data-name="Path 11569" d="M756.065,932.307c17.172-1.281,21.127-15.794,22.3-34.605,0,0,46.513-11.521,63.027,21.545l12.522,1.357-37.922-50.342-58.937,7.031-11.53,38.258Z" transform="translate(-709.227 -858.731)" fill="#000236"/>
              <path id="Path_11570" data-name="Path 11570" d="M764.89,995.515a9.369,9.369,0,0,0-8.024-3c-11.408,1.381-13.39,16.488-10.781,22.916,3.9,9.621,14.473,12.551,14.473,12.551l9.082-9.605C770.366,1008.377,769.229,1000.3,764.89,995.515Z" transform="translate(-708.966 -927.577)" fill="#f9b384"/>
              <path id="Path_11571" data-name="Path 11571" d="M718.488,1100.425c6.269,17.827,25.555,68.167-5.945,66.9-15.182-.61-28.523-30.059-50.166-24.5a56.9,56.9,0,0,1,8.093-3.127Z" transform="translate(-662.377 -988.414)" fill="#3c1c16" opacity="0.15"/>
              <path id="Path_11572" data-name="Path 11572" d="M724.413,1073.845c6.076,11.542,23.076,68.642-5.88,65.344-13.957-1.589-17.383-18.4-37.618-14.465Z" transform="translate(-672.822 -973.438)" fill="#000236"/>
              <g id="Group_6171" data-name="Group 6171" transform="translate(41.806 56.437)">
                <path id="Path_11573" data-name="Path 11573" d="M768.92,1012.557a6.311,6.311,0,0,0-1.041-3.608,6.433,6.433,0,0,0-2.681-2.359,4.341,4.341,0,0,0-3.3-.178,8.458,8.458,0,0,0-3.051,2.263l-.7-.417a6.631,6.631,0,0,1,3.005-3.521,3.97,3.97,0,0,1,1.188-.444,4.11,4.11,0,0,1,1.273-.155l.645.021.623.132a4.459,4.459,0,0,1,1.192.409,7.077,7.077,0,0,1,3.381,3.4,5.918,5.918,0,0,1,.271,4.628Z" transform="translate(-758.14 -990.595)" fill="#3c1c16"/>
                <path id="Path_11574" data-name="Path 11574" d="M923.026,1001.623c.1,2.941,1.817,5.268,3.827,5.2s3.557-2.512,3.454-5.453-1.816-5.268-3.827-5.2S922.923,998.682,923.026,1001.623Z" transform="translate(-851.041 -986.109)" fill="#000236"/>
                <path id="Path_11575" data-name="Path 11575" d="M850.373,1004.169c.1,2.941,1.817,5.268,3.827,5.2s3.557-2.512,3.454-5.453-1.817-5.268-3.827-5.2S850.27,1001.228,850.373,1004.169Z" transform="translate(-810.105 -987.543)" fill="#000236"/>
                <path id="Path_11576" data-name="Path 11576" d="M892.135,1072.326a15.606,15.606,0,0,1-5.228,4.453,10.245,10.245,0,0,1-7.18.511,17.794,17.794,0,0,1-6.089-3.325,28.369,28.369,0,0,1-4.729-4.771l.661-.682c1.811,1.252,3.51,2.591,5.309,3.717a21.8,21.8,0,0,0,5.518,2.737,9.251,9.251,0,0,0,5.705-.1,23.026,23.026,0,0,0,5.37-3.222Z" transform="translate(-820.552 -1026.87)" fill="#000236"/>
                <path id="Path_11577" data-name="Path 11577" d="M925.628,979.555a26.68,26.68,0,0,0-4.079-2.5,7.75,7.75,0,0,0-3.982-.727,13.811,13.811,0,0,0-4.125,1.215c-1.425.62-2.821,1.454-4.424,2.163l-.437-.458a12.924,12.924,0,0,1,3.476-4.008,10.134,10.134,0,0,1,5.264-2.079,8.022,8.022,0,0,1,5.575,1.7,10.032,10.032,0,0,1,3.23,4.3Z" transform="translate(-842.905 -973.124)" fill="#000236"/>
                <path id="Path_11578" data-name="Path 11578" d="M849.914,982.478a16.727,16.727,0,0,0-4.583-2.407,11.493,11.493,0,0,0-4.7-.478,17.447,17.447,0,0,0-4.729,1.269c-1.582.655-3.133,1.5-4.859,2.327l-.437-.458a13.568,13.568,0,0,1,3.991-4.26,12.08,12.08,0,0,1,5.733-2.087,10.2,10.2,0,0,1,6.08,1.311,9.375,9.375,0,0,1,4.006,4.392Z" transform="translate(-798.968 -974.934)" fill="#000236"/>
                <path id="Path_11582" data-name="Path 11582" d="M895.887,1001.428a21.761,21.761,0,0,0,3.093,6.862c1.383,2.124,3,4.1,4.642,6.171.413.52.812,1.06,1.2,1.635a9.164,9.164,0,0,1,1.083,1.994,2.9,2.9,0,0,1,.153,1.576,3.167,3.167,0,0,1-.742,1.354,8.85,8.85,0,0,1-1.7,1.448,27.646,27.646,0,0,1-7.361,3.3l-.363-.878c1.116-.663,2.26-1.289,3.339-1.995a30.621,30.621,0,0,0,3.114-2.146,8.793,8.793,0,0,0,1.217-1.179,1.816,1.816,0,0,0,.209-.34,1.482,1.482,0,0,0-.1-.347,15.719,15.719,0,0,0-1.97-2.949,47.255,47.255,0,0,1-4.515-6.6,17.151,17.151,0,0,1-2.25-7.805Z" transform="translate(-835.221 -989.072)" fill="#000236"/>
              </g>
              <g id="Group_6172" data-name="Group 6172" transform="translate(8.318)">
                <path id="Path_11583" data-name="Path 11583" d="M714.54,1080.63a10.922,10.922,0,0,0-.868,5.192,17.463,17.463,0,0,0,1.248,5.2c1.407,3.315,3.281,6.559,4.927,9.9a38.99,38.99,0,0,1,3.825,10.688,23.929,23.929,0,0,1,.278,5.8,24.191,24.191,0,0,1-.478,2.909,13.852,13.852,0,0,1-1.076,2.8,11.255,11.255,0,0,1-4.037,4.484,9.4,9.4,0,0,1-5.955,1.4,22.028,22.028,0,0,1-5.571-1.714c-1.733-.722-3.427-1.478-5.11-2.234a47.656,47.656,0,0,0-10.306-3.583,12.051,12.051,0,0,0-5.23,0,7.117,7.117,0,0,0-2.3,1.122,7.884,7.884,0,0,0-1.755,1.924l-.706-.411a8.784,8.784,0,0,1,1.82-2.3,8.194,8.194,0,0,1,2.6-1.448,13.205,13.205,0,0,1,5.8-.33,49.1,49.1,0,0,1,10.788,3.345l5.126,2.128a20.515,20.515,0,0,0,5.04,1.52,7.357,7.357,0,0,0,4.662-1.149,9.745,9.745,0,0,0,3.295-3.707,11.78,11.78,0,0,0,.938-2.37,22.7,22.7,0,0,0,.446-2.572,21.932,21.932,0,0,0-.2-5.287,41.323,41.323,0,0,0-3.485-10.253c-1.52-3.361-3.3-6.6-4.662-10.172a18.74,18.74,0,0,1-1.061-5.643,11.328,11.328,0,0,1,1.279-5.6Z" transform="translate(-681.431 -977.054)" fill="#464884"/>
                <path id="Path_11584" data-name="Path 11584" d="M758.616,850.2a61.43,61.43,0,0,1,9.721-3.294,97.033,97.033,0,0,1,10.043-2.067,85.947,85.947,0,0,1,10.22-.966c1.714-.043,3.432-.037,5.15.048a36.618,36.618,0,0,1,5.124.66l-.115.808c-1.681-.051-3.348-.109-5.028-.008-1.675.037-3.352.151-5.024.314q-5.019.456-10.019,1.2c-3.332.487-6.647,1.092-9.956,1.729-1.655.319-3.3.687-4.936,1.08-1.65.355-3.264.82-4.9,1.259Z" transform="translate(-724.92 -843.848)" fill="#464884"/>
                <path id="Path_11585" data-name="Path 11585" d="M820.324,928.458a18.633,18.633,0,0,1,4.349-1.546c1.484-.345,2.98-.645,4.486-.844a67.09,67.09,0,0,1,9.086-.574,69.155,69.155,0,0,1,18.041,2.441,48.39,48.39,0,0,1,16.429,7.966,35.288,35.288,0,0,1,11.19,14.29l-.737.351a38.38,38.38,0,0,0-11.544-13.177,47.141,47.141,0,0,0-7.6-4.432,58.11,58.11,0,0,0-8.3-3.005,73.336,73.336,0,0,0-17.514-2.67,69.393,69.393,0,0,0-8.893.216,30.671,30.671,0,0,0-8.623,1.712Z" transform="translate(-759.689 -889.851)" fill="#3c1c16"/>
              </g>
            </g>
          </g>
        </g>
      </g>
      <g id="Group_7331" data-name="Group 7331" transform="translate(394.742 385.696)">
        <path id="Path_11679" data-name="Path 11679" d="M719.88,303.478h-167.4a17.311,17.311,0,0,0-17.261,17.261v71.836a17.311,17.311,0,0,0,17.261,17.261h15.458L593.06,447.6l7.472-37.766H719.88a17.312,17.312,0,0,0,17.261-17.261V320.739A17.311,17.311,0,0,0,719.88,303.478Z" transform="translate(-535.216 -303.478)" fill="#fff" stroke="#d6def5" stroke-width="1"/>
        <g id="Group_6238" data-name="Group 6238" transform="translate(29.263 26.149)">
          <rect id="Rectangle_1942" data-name="Rectangle 1942" width="143.398" height="8.238" transform="translate(0 0)" fill="#d6def5"/>
          <rect id="Rectangle_1943" data-name="Rectangle 1943" width="143.398" height="8.238" transform="translate(0 21.719)" fill="#d6def5"/>
          <rect id="Rectangle_1944" data-name="Rectangle 1944" width="143.398" height="8.238" transform="translate(0 43.438)" fill="#d6def5"/>
        </g>
      </g>
    </g>
  </g>
</svg>
