<svg xmlns="http://www.w3.org/2000/svg" xmlns:xlink="http://www.w3.org/1999/xlink" width="110" height="110" viewBox="0 0 110 110">
  <defs>
    <clipPath id="clip-Artboard_4">
      <rect width="110" height="110"/>
    </clipPath>
  </defs>
  <g id="Artboard_4" data-name="Artboard – 4" clip-path="url(#clip-Artboard_4)">
    <g id="Group_4015" data-name="Group 4015" transform="translate(-94 -1126)">
      <g id="skills" transform="translate(101 1133)">
        <g id="Group_3969" data-name="Group 3969" transform="translate(2.535 2.53)">
          <g id="Group_3954" data-name="Group 3954" transform="translate(41.369 72.019)">
            <path id="Path_8609" data-name="Path 8609" d="M35.972,51.375l2.222,17.544H29l1.425-18.51A9.146,9.146,0,0,0,30.532,49H33.6Z" transform="translate(-29 -49)" fill="#ff826e"/>
          </g>
          <g id="Group_3955" data-name="Group 3955" transform="translate(29.049 73.428)">
            <path id="Path_8610" data-name="Path 8610" d="M20.96,52.111c1.915,2.252,5.133,3.969,6.19,7.125,5.24-2.62,7.125-6.374,7.554-9.316L33.279,68.43H21.021V53.107H20.96Z" transform="translate(-20.96 -49.92)" fill="#afa5ff"/>
          </g>
          <g id="Group_3956" data-name="Group 3956" transform="translate(9.191 52.099)">
            <path id="Path_8611" data-name="Path 8611" d="M26.387,55.919a5.407,5.407,0,0,0,1.471,3.6v1H26.387l-7.6.95A9.6,9.6,0,0,1,8,51.951V36h9.194V50.342a2.354,2.354,0,0,0,2.344,2.36,2.975,2.975,0,0,0,.368-.031L27.8,51.46a6.992,6.992,0,0,0-1.41,4.459Z" transform="translate(-8 -36)" fill="#afa5ff"/>
          </g>
          <g id="Group_3957" data-name="Group 3957" transform="translate(48.34 52.099)">
            <path id="Path_8612" data-name="Path 8612" d="M54.144,52.38l1.9.291a2.321,2.321,0,0,0,2.023-.659,2.353,2.353,0,0,0,.69-1.67V36h9.194V51.951a9.6,9.6,0,0,1-9.592,9.592,10.432,10.432,0,0,1-1.2-.077l-7.6-.95H48.03V75.839H35.772L33.55,58.294,37.3,62.048l2.635-11.86Z" transform="translate(-33.55 -36)" fill="#afa5ff"/>
          </g>
          <g id="Group_3958" data-name="Group 3958" transform="translate(45.965 65.89)">
            <path id="Path_8613" data-name="Path 8613" d="M40.765,45.4l-2.635,11.86L34.375,53.5,32,51.129,38.129,45Z" transform="translate(-32 -45)" fill="#afa5ff"/>
          </g>
          <g id="Group_3959" data-name="Group 3959" transform="translate(24.514 24.519)">
            <path id="Path_8614" data-name="Path 8614" d="M22.5,61.026c-2.436-2.007-4.5-4.643-4.5-7.784,0-6.129,4.6-7.661,4.6-7.661V34.089a16.089,16.089,0,1,1,32.177,0v.766a11.723,11.723,0,0,1,3.065,7.661c0,4.6-1.532,6.129-1.532,10.726,0,3.31,5.7,4.5,6.114,8.719l-14.2-2.191-2.635-.4v-4.6l-.138-.291a10.7,10.7,0,0,0,4.735-8.9V34.855H43.451A18.3,18.3,0,0,1,33.323,31.79l-4.6,3.065V45.581a10.662,10.662,0,0,0,3.141,7.585,10.524,10.524,0,0,0,2.988,2.1v.015a6.406,6.406,0,0,1-1.287,4.336c1.532,1.532,2.819,2.819,2.819,5.884l-.107,1.41c-.429,2.942-2.314,6.7-7.554,9.316-1.057-3.156-4.275-4.873-6.19-7.125a5.407,5.407,0,0,1-1.471-3.6,6.992,6.992,0,0,1,1.41-4.459h.046Z" transform="translate(-18 -18)" fill="#656d78"/>
          </g>
          <g id="Group_3960" data-name="Group 3960" transform="translate(9.191 39.841)">
            <path id="Path_8615" data-name="Path 8615" d="M20.258,35.968a2.958,2.958,0,0,1-.873,2.1l-2.191,2.191H8V31.065A3.074,3.074,0,0,1,11.065,28h3.065a3.074,3.074,0,0,1,3.065,3.065V32.6l1.425.7A2.966,2.966,0,0,1,20.258,35.968Z" transform="translate(-8 -28)" fill="#ffd5b1"/>
          </g>
          <g id="Group_3961" data-name="Group 3961" transform="translate(70.481 39.841)">
            <path id="Path_8616" data-name="Path 8616" d="M60.258,31.065v9.194H51.065l-2.191-2.191A2.976,2.976,0,0,1,49.64,33.3l1.425-.7V31.065A3.074,3.074,0,0,1,54.129,28h3.065a3.074,3.074,0,0,1,3.065,3.065Z" transform="translate(-48 -28)" fill="#ffd5b1"/>
          </g>
          <g id="Group_3962" data-name="Group 3962" transform="translate(40.081 61.002)">
            <path id="Path_8617" data-name="Path 8617" d="M40.173,42.1v4.6l-6.129,6.129H30.979c0-3.065-1.287-4.352-2.819-5.884a6.406,6.406,0,0,0,1.287-4.336v-.015a10.487,10.487,0,0,0,4.6,1.042,10.643,10.643,0,0,0,5.991-1.823Z" transform="translate(-28.16 -41.81)" fill="#f0d0b4"/>
          </g>
          <g id="Group_3963" data-name="Group 3963" transform="translate(35.24 38.309)">
            <path id="Path_8618" data-name="Path 8618" d="M46.452,30.065V40.79A10.713,10.713,0,0,1,35.726,51.516a10.808,10.808,0,0,1-7.585-3.141A10.662,10.662,0,0,1,25,40.79V30.065L29.6,27a18.3,18.3,0,0,0,10.128,3.065Z" transform="translate(-25 -27)" fill="#ffd5b1"/>
          </g>
          <g id="Group_3964" data-name="Group 3964" transform="translate(36.66 0.429)">
            <ellipse id="Ellipse_81" data-name="Ellipse 81" cx="9.5" cy="9" rx="9.5" ry="9" transform="translate(-0.196 0.041)" fill="#82ef62"/>
          </g>
          <g id="Group_3965" data-name="Group 3965" transform="translate(7.659 27.583)">
            <path id="Path_8619" data-name="Path 8619" d="M16.194,20v1.532a4.6,4.6,0,0,1-9.194,0V20h9.194Z" transform="translate(-7 -20)" fill="#aab2bd"/>
          </g>
          <g id="Group_3966" data-name="Group 3966" transform="translate(0 0)">
            <path id="Path_8620" data-name="Path 8620" d="M18.854,28.371v1.21H9.66V28.432a4.537,4.537,0,0,0-1.992-3.846,12.255,12.255,0,1,1,13.208-.015A4.485,4.485,0,0,0,18.854,28.371Z" transform="translate(-2.002 -1.998)" fill="#ffe180"/>
          </g>
          <g id="Group_3967" data-name="Group 3967" transform="translate(9.238 9.244)">
            <circle id="Ellipse_82" data-name="Ellipse 82" cx="3" cy="3" r="3" transform="translate(0.227 0.227)" fill="#fca070"/>
          </g>
          <g id="Group_3968" data-name="Group 3968" transform="translate(61.288 0.003)">
            <path id="Path_8621" data-name="Path 8621" d="M72.645,14.258v6.129l-3.877,1.287c-.092.23-.169.444-.276.659L70.331,26,66,30.331l-3.662-1.839c-.215.107-.429.184-.659.276l-1.287,3.877H54.258l-1.287-3.877c-.23-.092-.444-.169-.659-.276L48.65,30.331,44.314,26l1.839-3.662c-.107-.215-.184-.429-.276-.659L42,20.387V14.258l3.877-1.287c.092-.23.169-.444.276-.659L44.314,8.65,48.65,4.314l3.662,1.839c.215-.107.429-.184.659-.276L54.258,2h6.129l1.287,3.877c.23.092.444.169.659.276L66,4.314,70.331,8.65l-1.839,3.662c.107.215.184.429.276.659Zm-9.194,3.065a6.129,6.129,0,1,0-6.129,6.129A6.127,6.127,0,0,0,63.452,17.323Z" transform="translate(-42 -2)" fill="#8dd8f4"/>
          </g>
        </g>
        <g id="Group_3970" data-name="Group 3970" transform="translate(1 1)">
          <path id="Path_8622" data-name="Path 8622" d="M79.016,32.323H75.952a4.6,4.6,0,0,0-4.6,4.6V37.5l-.576.288A4.5,4.5,0,0,0,69.608,45l1.747,1.747V60.461a.822.822,0,0,1-.945.812l-.867-.133c-.639-2.107-2.291-3.509-3.668-4.664-1.356-1.137-2.18-1.888-2.18-2.7a18.561,18.561,0,0,1,.72-4.991,21.392,21.392,0,0,0,.812-5.735,13.239,13.239,0,0,0-3.065-8.242v-.185a17.621,17.621,0,1,0-35.242,0V45.149c-1.635.927-4.6,3.337-4.6,8.625a10.327,10.327,0,0,0,2.793,6.742l-4.909.755a.822.822,0,0,1-.947-.812V46.746L21.006,45a4.5,4.5,0,0,0-1.172-7.206l-.576-.288v-.585a4.6,4.6,0,0,0-4.6-4.6H11.6a4.6,4.6,0,0,0-4.6,4.6V62.058A11.125,11.125,0,0,0,19.508,73.1l7.412-.925v15.31H63.694V72.174l7.412.925A11.128,11.128,0,0,0,83.613,62.058V36.919A4.6,4.6,0,0,0,79.016,32.323ZM72.15,40.534,74.419,39.4V36.919a1.534,1.534,0,0,1,1.532-1.532h3.065a1.534,1.534,0,0,1,1.532,1.532v7.661H73.521l-1.747-1.747a1.436,1.436,0,0,1,.375-2.3ZM28.936,47.567l1.048-.349v-12.6a14.556,14.556,0,1,1,29.113,0v1.4l.449.449a10.125,10.125,0,0,1,2.616,6.578,18.561,18.561,0,0,1-.72,4.991,21.392,21.392,0,0,0-.812,5.735c0,2.3,1.741,3.762,3.276,5.049a15.72,15.72,0,0,1,1.862,1.735l-12.8-1.969V55.667a12.236,12.236,0,0,0,4.6-9.554V33.855H49.3a16.656,16.656,0,0,1-9.272-2.807l-.849-.567-6.129,4.087V46.113a12.257,12.257,0,0,0,6.089,10.576,4.03,4.03,0,0,1-.852,2.423L37.3,60.194l1.036,1.036C39.809,62.7,40.7,63.6,40.708,66l-.1,1.273c-.3,1.944-1.436,4.94-5.335,7.35a17.119,17.119,0,0,0-3.636-3.976c-.64-.564-1.191-1.065-1.655-1.545v0h0a4.333,4.333,0,0,1-1.529-3.065,6.4,6.4,0,0,1,.368-2.2,32.935,32.935,0,0,0,6.756,3.639l1.077-2.87c-3.133-1.174-11.265-5.409-11.265-10.822,0-4.883,3.417-6.161,3.549-6.207Zm16.371,7.739a9.2,9.2,0,0,1-9.194-9.194V36.207L39.2,34.147a19.706,19.706,0,0,0,10.1,2.772h5.2v9.194A9.2,9.2,0,0,1,45.306,55.306Zm0,3.065a12.174,12.174,0,0,0,4.6-.9v1.8L44.672,64.5H43.655a8.055,8.055,0,0,0-2.266-4.528,7.14,7.14,0,0,0,.671-2.052,12.224,12.224,0,0,0,3.247.45Zm-1.643,9.194h1.008l1.549,1.549,1.943,15.306h-5.8l1.293-16.806c0-.017,0-.032.006-.049Zm3.809-1.532,4.5-4.5.248.038L50.545,69.1ZM11.6,35.387h3.065a1.534,1.534,0,0,1,1.532,1.532V39.4l2.269,1.135a1.436,1.436,0,0,1,.375,2.3l-1.747,1.747H10.065V36.919A1.534,1.534,0,0,1,11.6,35.387Zm7.531,34.672a8.061,8.061,0,0,1-9.063-8V47.645h6.129V60.461a3.861,3.861,0,0,0,1.138,2.747A3.9,3.9,0,0,0,20.671,64.3l5.038-.775a9.7,9.7,0,0,0-.322,2.507,6.377,6.377,0,0,0,.829,3.152Zm10.856,3.216a9.836,9.836,0,0,1,3.144,3.967l.558,1.676,1.58-.791a17.672,17.672,0,0,0,4.77-3.391l-.745,9.682H29.984Zm48.2-5.516a8.007,8.007,0,0,1-6.7,2.3l-7.6-.95L60.629,69.1V84.419H51.253L49.759,72.652l2.567,2.567,2.928-13.177,14.69,2.26a3.911,3.911,0,0,0,3.337-1.092,3.861,3.861,0,0,0,1.138-2.747V47.645h6.129V62.058a8.018,8.018,0,0,1-2.361,5.7Z" transform="translate(2.194 7.516)"/>
          <path id="Path_8623" data-name="Path 8623" d="M35.726,22.452A10.726,10.726,0,1,0,25,11.726,10.739,10.739,0,0,0,35.726,22.452Zm0-18.387a7.661,7.661,0,1,1-7.661,7.661A7.67,7.67,0,0,1,35.726,4.065Z" transform="translate(11.775 -1)"/>
          <path id="Path_8624" data-name="Path 8624" d="M39.653,7.46,37.487,5.293l-5.046,5.046L30.46,8.358l-2.167,2.167,4.148,4.148Z" transform="translate(13.527 1.285)"/>
          <path id="Path_8625" data-name="Path 8625" d="M14.791,37.774a6.135,6.135,0,0,0,6.129-6.129V28.9a2.989,2.989,0,0,1,1.321-2.511,13.793,13.793,0,1,0-14.866.021,3.016,3.016,0,0,1,1.287,2.554v2.681A6.135,6.135,0,0,0,14.791,37.774Zm0-3.065a3.068,3.068,0,0,1-3.065-3.065h6.129A3.068,3.068,0,0,1,14.791,34.709ZM13.258,14.79a1.532,1.532,0,1,1,1.532,1.532A1.534,1.534,0,0,1,13.258,14.79Zm-9.1-1.417a10.766,10.766,0,0,1,9.377-9.238,11.439,11.439,0,0,1,1.269-.07,10.607,10.607,0,0,1,7.131,2.724,10.72,10.72,0,0,1-1.35,17.022,5.969,5.969,0,0,0-2.709,4.77H16.323V19.1a4.6,4.6,0,1,0-3.065,0V28.58H11.7a5.965,5.965,0,0,0-2.68-4.753A10.687,10.687,0,0,1,4.157,13.372Z" transform="translate(-1 -0.999)"/>
          <path id="Path_8626" data-name="Path 8626" d="M74.71,13.686l-3.762-1.255,1.773-3.546-5.9-5.9L63.278,4.763,62.024,1H53.687L52.434,4.763,48.887,2.989l-5.9,5.9,1.773,3.546L41,13.686v8.337l3.762,1.255-1.773,3.546,5.9,5.9,3.547-1.774,1.253,3.765h8.337l1.253-3.763,3.547,1.774,5.9-5.9-1.773-3.546,3.763-1.255Zm-3.065,6.129L68.13,20.987l-.259.676c-.077.2-.153.391-.237.581l-.3.663,1.656,3.313-2.772,2.772-3.313-1.656-.663.3c-.188.084-.38.161-.575.234l-.682.257-1.174,3.521H55.894L54.72,28.124l-.682-.257c-.195-.074-.386-.15-.575-.234l-.663-.3-3.313,1.656-2.772-2.772,1.656-3.313-.3-.663c-.086-.192-.161-.385-.237-.581l-.259-.676-3.513-1.172V15.894l3.515-1.172.259-.676c.077-.2.153-.391.237-.581l.3-.663L46.717,9.489l2.772-2.772L52.8,8.373l.663-.3c.188-.084.38-.161.575-.234l.682-.257L55.9,4.065h3.921L60.99,7.586l.682.257c.195.074.386.15.575.234l.663.3,3.313-1.656L68.994,9.49,67.338,12.8l.3.663c.086.192.161.385.237.581l.259.676L71.645,15.9Z" transform="translate(20.291 -1)"/>
          <path id="Path_8627" data-name="Path 8627" d="M54.661,7a7.661,7.661,0,1,0,7.661,7.661A7.67,7.67,0,0,0,54.661,7Zm0,12.258a4.6,4.6,0,1,1,4.6-4.6A4.6,4.6,0,0,1,54.661,19.258Z" transform="translate(23.484 2.194)"/>
        </g>
      </g>
      <circle id="Ellipse_144" data-name="Ellipse 144" cx="1.5" cy="1.5" r="1.5" transform="translate(144 1181)" fill="#101112"/>
      <circle id="Ellipse_145" data-name="Ellipse 145" cx="1.5" cy="1.5" r="1.5" transform="translate(152 1181)" fill="#101112"/>
      <path id="Subtraction_2" data-name="Subtraction 2" d="M-5093-2353a4.492,4.492,0,0,1-2.963-1.133,5.707,5.707,0,0,1-1.747-2.868h9.421a5.705,5.705,0,0,1-1.747,2.868A4.492,4.492,0,0,1-5093-2353Z" transform="translate(5243 3545)" fill="#f07f6b" stroke="#101112" stroke-width="2"/>
    </g>
  </g>
</svg>
