<svg xmlns="http://www.w3.org/2000/svg" xmlns:xlink="http://www.w3.org/1999/xlink" width="110" height="110" viewBox="0 0 110 110">
  <defs>
    <clipPath id="clip-Artboard_4">
      <rect width="110" height="110"/>
    </clipPath>
  </defs>
  <g id="Artboard_4" data-name="Artboard – 4" clip-path="url(#clip-Artboard_4)">
    <g id="medal_1_" data-name="medal (1)" transform="translate(-29.547 5.958)">
      <g id="Group_4007" data-name="Group 4007" transform="translate(46.889 1.461)">
        <path id="Path_9136" data-name="Path 9136" d="M320.579,341.432l-11.448-2.52-3.548,11.2a.971.971,0,0,1-1.767.191l-14.163-24.6a35.165,35.165,0,0,0,17.95-10.073L321.629,340A.971.971,0,0,1,320.579,341.432Z" transform="translate(-244.458 -255.788)" fill="#fd646f"/>
        <path id="Path_9137" data-name="Path 9137" d="M320.58,341.431,310,339.1a.971.971,0,0,0-1.134.655l-3.28,10.356a.971.971,0,0,1-1.767.191l-12.133-21.079-2.03-3.524a35.165,35.165,0,0,0,17.95-10.073l2.014,3.5L321.63,340A.971.971,0,0,1,320.58,341.431Z" transform="translate(-244.459 -255.787)" fill="#fd646f"/>
        <path id="Path_9138" data-name="Path 9138" d="M400.282,424.056,389.7,421.727a.972.972,0,0,0-1.134.655l1.139-3.539a.971.971,0,0,1,1.135-.65l9.105,2.024,1.387,2.408a.97.97,0,0,1-1.051,1.431Z" transform="translate(-324.162 -338.413)" fill="#fc4755"/>
        <path id="Path_9139" data-name="Path 9139" d="M89.292,330.442,74.9,355.429a.971.971,0,0,1-1.767-.191l-3.28-10.356a.971.971,0,0,0-1.134-.655l-10.582,2.329a.971.971,0,0,1-1.05-1.433l13.38-23.246C75.466,326.613,82.2,329.275,89.292,330.442Z" transform="translate(-56.958 -260.823)" fill="#fd646f"/>
        <g id="Group_4006" data-name="Group 4006" transform="translate(0 59.147)">
          <path id="Path_9140" data-name="Path 9140" d="M72.366,317.424,60.443,338.138l-2.3.507a.971.971,0,0,1-1.051-1.433l11.389-19.788,3.08-5.365q1.244,1.178,2.6,2.233Z" transform="translate(-56.96 -312.059)" fill="#fc4755"/>
          <path id="Path_9141" data-name="Path 9141" d="M125.113,442.307l-1.4,2.439a.971.971,0,0,1-1.767-.19l-3.28-10.356a.972.972,0,0,0-1.134-.656l3.628-.8a.971.971,0,0,1,1.134.655Z" transform="translate(-105.764 -409.288)" fill="#fc4755"/>
          <path id="Path_9142" data-name="Path 9142" d="M118.6,318.832l9.462,4.267,9.035,4.889-2.423,4.2a38.9,38.9,0,0,1-18.2-9.146c-.062-.055-.124-.109-.186-.166Z" transform="translate(-104.761 -317.517)" fill="#fc4755"/>
          <path id="Path_9143" data-name="Path 9143" d="M309.616,319.126l-2.014-3.5-10.658,4.7-7.292,5.369.82,1.423,2.013,3.5,11.33,19.684a.971.971,0,0,0,1.767-.191l.721-2.278-11.262-19.616a38.879,38.879,0,0,0,14.574-9.094Z" transform="translate(-244.459 -314.936)" fill="#fc4755"/>
        </g>
        <path id="Path_9144" data-name="Path 9144" d="M144.975,42.877A35.217,35.217,0,0,1,86.3,69.291c-.264-.234-.522-.471-.779-.715a36.039,36.039,0,0,1-2.587-2.723A35.319,35.319,0,0,1,119.962,9.038a34.931,34.931,0,0,1,9.814,4.759,34.582,34.582,0,0,1,2.855,2.209,35.339,35.339,0,0,1,12.345,26.871Z" transform="translate(-71.075 -7.522)" fill="#faa515"/>
        <ellipse id="Ellipse_140" data-name="Ellipse 140" cx="25.247" cy="25.323" rx="25.247" ry="25.323" transform="translate(13.404 10.032)" fill="#fad207"/>
        <path id="Path_9145" data-name="Path 9145" d="M176.47,176.628a25.247,25.247,0,1,1-50.3-3.117,25.239,25.239,0,0,0,50.113,0A25.385,25.385,0,0,1,176.47,176.628Z" transform="translate(-112.572 -141.273)" fill="#faa515"/>
        <path id="Path_9146" data-name="Path 9146" d="M151.224,59.176A25.323,25.323,0,1,0,176.47,84.5a25.285,25.285,0,0,0-25.247-25.323Zm0,47.724a22.4,22.4,0,1,1,22.333-22.4,22.392,22.392,0,0,1-22.333,22.4Z" transform="translate(-112.572 -49.144)" fill="#faf063" fill-rule="evenodd"/>
        <path id="Path_9147" data-name="Path 9147" d="M199.989,115.2l3.468,7.085a.971.971,0,0,0,.734.534l7.794,1.12a.971.971,0,0,1,.539,1.657l-5.653,5.5a.971.971,0,0,0-.279.861l1.347,7.783a.971.971,0,0,1-1.412,1.024l-6.956-3.686a.971.971,0,0,0-.909,0l-6.956,3.686a.971.971,0,0,1-1.412-1.024l1.347-7.783a.971.971,0,0,0-.279-.861l-5.653-5.5a.971.971,0,0,1,.539-1.657l7.794-1.12a.971.971,0,0,0,.734-.534l3.468-7.085a.971.971,0,0,1,1.744,0Z" transform="translate(-160.465 -93.848)" fill="#fff"/>
        <path id="Path_9151" data-name="Path 9151" d="M61.541,10.925A53.577,53.577,0,0,1,68.7,5.779a21.826,21.826,0,0,1,3.635-1.732" transform="translate(-46.889 -1.461)" fill="none" stroke="#000" stroke-width="2.95"/>
        <path id="Path_9152" data-name="Path 9152" d="M70.508,5.432a21.138,21.138,0,0,1-6.7,3.916" transform="matrix(0.766, -0.643, 0.643, 0.766, 5.96, 81.318)" fill="none" stroke="#000" stroke-width="2.95"/>
      </g>
      <g id="Group_4008" data-name="Group 4008" transform="translate(44.462 0)">
        <path id="Path_9148" data-name="Path 9148" d="M169.616,84.956a1.457,1.457,0,0,0,1.719-1.138,27.047,27.047,0,0,0,.542-5.4,26.747,26.747,0,1,0-2.962,12.273,1.458,1.458,0,1,0-2.589-1.341,23.886,23.886,0,1,1,2.638-10.933,24.108,24.108,0,0,1-.483,4.811,1.461,1.461,0,0,0,1.135,1.724Z" transform="translate(-104.094 -41.606)"/>
        <path id="Path_9149" data-name="Path 9149" d="M204.664,112.623a1.458,1.458,0,0,0-1.179-.995l-9.493-1.364-4.227-8.635a1.465,1.465,0,0,0-2.615,0l-4.227,8.635-9.493,1.364a1.472,1.472,0,0,0-.808,2.494l6.881,6.7-1.64,9.478a1.468,1.468,0,0,0,2.116,1.542l8.48-4.494,8.48,4.494a1.468,1.468,0,0,0,2.116-1.542l-1.64-9.478,6.881-6.7a1.463,1.463,0,0,0,.371-1.5Zm-9.833,6.641a1.464,1.464,0,0,0-.421,1.3l1.265,7.306-6.537-3.464a1.453,1.453,0,0,0-1.361,0l-6.537,3.464,1.265-7.306a1.464,1.464,0,0,0-.421-1.3l-5.3-5.166,7.319-1.052a1.457,1.457,0,0,0,1.1-.8l3.259-6.657,3.259,6.657a1.457,1.457,0,0,0,1.1.8l7.319,1.052Z" transform="translate(-147.378 -81.242)"/>
        <path id="Path_9150" data-name="Path 9150" d="M126.418,86.846,112.181,62.112A36.758,36.758,0,0,0,67.75,4.606a1.46,1.46,0,0,0,1.414,2.555A33.931,33.931,0,1,1,63.8,10.87a1.459,1.459,0,0,0-1.876-2.236,36.861,36.861,0,0,0-2.989,53.512l-4.032,7a1.458,1.458,0,0,0,2.523,1.461l3.666-6.368a36.619,36.619,0,0,0,15.6,8.3L64.123,94.382l-3.215-10.15a1.456,1.456,0,0,0-1.7-.985L48.836,85.529l8.587-14.917A1.458,1.458,0,1,0,54.9,69.151L44.662,86.936a1.47,1.47,0,0,0,1.574,2.158l12.3-2.706,3.812,12.035A1.464,1.464,0,0,0,65,98.71L79.7,73.161a36.665,36.665,0,0,0,11.723-.008l13.289,23.008a1.458,1.458,0,1,0,2.523-1.461l-12.8-22.166a36.621,36.621,0,0,0,15.594-8.32L122.244,85.44l-10.372-2.282a1.456,1.456,0,0,0-1.7.985l-3.215,10.15-.778-1.351a1.458,1.458,0,1,0-2.523,1.461l2.428,4.218a1.464,1.464,0,0,0,2.65-.288L112.546,86.3,124.844,89a1.47,1.47,0,0,0,1.574-2.158Z" transform="translate(-44.462 0)"/>
      </g>
    </g>
  </g>
</svg>
