<svg xmlns="http://www.w3.org/2000/svg" xmlns:xlink="http://www.w3.org/1999/xlink" width="110" height="110" viewBox="0 0 110 110">
  <defs>
    <clipPath id="clip-Artboard_4">
      <rect width="110" height="110"/>
    </clipPath>
  </defs>
  <g id="Artboard_4" data-name="Artboard – 4" clip-path="url(#clip-Artboard_4)">
    <g id="Group_4027" data-name="Group 4027" transform="translate(-94 -899)">
      <g id="Group_4002" data-name="Group 4002" transform="translate(45.613 -106)">
        <path id="Path_8644" data-name="Path 8644" d="M74.2,90.434v2.532a10.045,10.045,0,0,0,10.045,10.045H95.383v7.2H84.249A17.249,17.249,0,0,1,67,92.967V90.434A11.434,11.434,0,0,1,78.434,79H95.383v7.2H78.434A4.236,4.236,0,0,0,74.2,90.434Z" transform="translate(-8.199 955.205)" fill="#faaa0a"/>
        <path id="Path_8645" data-name="Path 8645" d="M356.074,90.434v2.532a17.248,17.248,0,0,1-17.249,17.249H327.974v-7.2h10.849A10.047,10.047,0,0,0,348.87,92.964v-2.53A4.236,4.236,0,0,0,344.64,86.2H327.974V79H344.64a11.434,11.434,0,0,1,11.434,11.434Z" transform="translate(-206.509 955.205)" fill="#faaa0a"/>
        <path id="Path_8647" data-name="Path 8647" d="M341,340.5h7.2v6.524H341Z" transform="translate(-216.407 756.496)" fill="#426778"/>
        <path id="Path_8650" data-name="Path 8650" d="M174.433,481.7H109.6a3.6,3.6,0,0,1,0-7.2h64.832a3.6,3.6,0,0,1,0,7.2Z" transform="translate(-37.835 623.206)" fill="#ff8724"/>
        <path id="Path_8651" data-name="Path 8651" d="M368.2,474.5H361a3.6,3.6,0,1,1,0,7.2h7.2a3.6,3.6,0,0,0,0-7.2Z" transform="translate(-231.605 623.206)" fill="#f86f1b"/>
        <path id="Path_8652" data-name="Path 8652" d="M193.628,37.5V65.025A28.206,28.206,0,0,1,186.012,84.3l-6.466,6.906a9.844,9.844,0,0,0-2.658,6.728v4.635H152.74V97.937a9.844,9.844,0,0,0-2.658-6.728L143.616,84.3A28.207,28.207,0,0,1,136,65.025V37.5Z" transform="translate(-60.631 986.74)" fill="#ffde5c"/>
        <path id="Path_8653" data-name="Path 8653" d="M293.025,37.5V65.025A28.205,28.205,0,0,1,285.409,84.3l-6.466,6.906a9.844,9.844,0,0,0-2.658,6.728v4.635h7.2V97.937a9.845,9.845,0,0,1,2.658-6.728l6.466-6.906a28.205,28.205,0,0,0,7.616-19.277V37.5Z" transform="translate(-167.231 986.74)" fill="#ffc736"/>
        <path id="Path_8654" data-name="Path 8654" d="M208.7,316.184H165v-2.772a4.912,4.912,0,0,1,4.912-4.912H203.79a4.912,4.912,0,0,1,4.912,4.912Z" transform="translate(-82.668 780.812)" fill="#ffc736"/>
        <path id="Path_8655" data-name="Path 8655" d="M303.749,308.5h-7.2a4.912,4.912,0,0,1,4.912,4.912v2.772h7.2v-2.772A4.912,4.912,0,0,0,303.749,308.5Z" transform="translate(-182.627 780.812)" fill="#faaa0a"/>
        <path id="Path_8656" data-name="Path 8656" d="M174.433,14.7H109.6a3.6,3.6,0,1,1,0-7.2h64.832a3.6,3.6,0,0,1,0,7.2Z" transform="translate(-37.835 1009.537)" fill="#ff8724"/>
        <path id="Path_8657" data-name="Path 8657" d="M368.2,7.5H361a3.6,3.6,0,1,1,0,7.2h7.2a3.6,3.6,0,0,0,0-7.2Z" transform="translate(-231.605 1009.537)" fill="#f86f1b"/>
        <path id="Path_8658" data-name="Path 8658" d="M212.14,86.9l2.316,4.694a2.862,2.862,0,0,0,2.155,1.566l5.18.753a2.862,2.862,0,0,1,1.586,4.882l-3.748,3.653a2.862,2.862,0,0,0-.823,2.533l.885,5.159a2.862,2.862,0,0,1-4.152,3.017l-4.633-2.436a2.863,2.863,0,0,0-2.664,0l-4.633,2.436a2.862,2.862,0,0,1-4.152-3.017l.885-5.159a2.863,2.863,0,0,0-.823-2.533L195.77,98.8a2.862,2.862,0,0,1,1.586-4.882l5.18-.753a2.862,2.862,0,0,0,2.155-1.566l2.316-4.694a2.861,2.861,0,0,1,5.132,0Z" transform="translate(-105.39 950.412)" fill="#ff8724"/>
        <g id="Group_3972" data-name="Group 3972" transform="translate(100.581 1035.72)">
          <path id="Path_8659" data-name="Path 8659" d="M258.405,98.8a2.862,2.862,0,0,0-1.586-4.882l-5.18-.753a2.862,2.862,0,0,1-2.155-1.566L247.168,86.9a2.862,2.862,0,0,0-5.133,0L241,89l1.281,2.6a2.862,2.862,0,0,0,2.155,1.566l1.163.169a4.865,4.865,0,0,1,2.7,8.3l-.842.82a2.862,2.862,0,0,0-.823,2.533l.885,5.159a2.847,2.847,0,0,1-.092,1.364l3.144,1.653a2.862,2.862,0,0,0,4.152-3.017l-.885-5.159a2.862,2.862,0,0,1,.823-2.533Z" transform="translate(-241 -85.307)" fill="#f86f1b"/>
        </g>
        <g id="Group_3973" data-name="Group 3973" transform="translate(57 1015.236)">
          <path id="Path_8660" data-name="Path 8660" d="M140.631,17.168H137.3V10.805h1.8A5.4,5.4,0,0,0,139.1,0H129.63a1.8,1.8,0,0,0,0,3.6H139.1a1.8,1.8,0,1,1,0,3.6H74.267a1.8,1.8,0,0,1,0-3.6h57.826a1.8,1.8,0,1,0,0-3.6H74.267a5.4,5.4,0,1,0,0,10.805h1.8v6.363H72.735A13.25,13.25,0,0,0,59.5,30.4v2.533A19.07,19.07,0,0,0,78.548,51.985h1.8a30.14,30.14,0,0,0,3.821,5.052A1.8,1.8,0,1,0,86.8,54.576,26.485,26.485,0,0,1,83.02,49.41a1.8,1.8,0,0,0-.108-.2,26.232,26.232,0,0,1-2.519-6.527,1.809,1.809,0,0,0-.055-.243,26.5,26.5,0,0,1-.668-5.916V10.805H133.7V36.529a26.5,26.5,0,0,1-.668,5.916,1.8,1.8,0,0,0-.055.243,26.245,26.245,0,0,1-2.519,6.527,1.772,1.772,0,0,0-.108.2,26.477,26.477,0,0,1-3.779,5.166L120.1,61.482a11.606,11.606,0,0,0-3.144,7.959v2.834H96.41V69.441a11.6,11.6,0,0,0-3.144-7.959L86.8,54.576a1.8,1.8,0,0,0-2.629,2.462l6.466,6.906a8.016,8.016,0,0,1,2.172,5.5v2.834H89.744a6.72,6.72,0,0,0-6.712,6.712v.971H74.2a5.4,5.4,0,0,0,0,10.805H122a1.8,1.8,0,1,0,0-3.6H74.2a1.8,1.8,0,0,1,0-3.6h64.832a1.8,1.8,0,0,1,0,3.6h-19.81a1.8,1.8,0,1,0,0,3.6h19.81a5.4,5.4,0,0,0,0-10.805h-8.7v-.971a6.72,6.72,0,0,0-6.712-6.712h-3.064V69.441a8.016,8.016,0,0,1,2.172-5.5l6.466-6.906a30.15,30.15,0,0,0,3.821-5.052h1.8a19.07,19.07,0,0,0,19.048-19.048V30.4A13.25,13.25,0,0,0,140.631,17.168ZM76.385,40.89a8.256,8.256,0,0,1-6.079-7.953V30.4a2.433,2.433,0,0,1,2.43-2.43h3.333v8.556A30.232,30.232,0,0,0,76.385,40.89ZM63.1,32.937V30.4a9.644,9.644,0,0,1,9.633-9.633h3.333v3.6H72.735A6.038,6.038,0,0,0,66.7,30.4v2.533A11.861,11.861,0,0,0,77.2,44.7a29.812,29.812,0,0,0,1.3,3.68A15.464,15.464,0,0,1,63.1,32.937Zm69.328,47.022H80.8l.066,3.6H132.5Zm-5.7-.971v.971h-40.1v-.971a3.114,3.114,0,0,1,3.111-3.111h33.878a3.114,3.114,0,0,1,3.111,3.111ZM137.3,27.974h3.333a2.433,2.433,0,0,1,2.43,2.43v2.531a8.259,8.259,0,0,1-6.079,7.955,30.193,30.193,0,0,0,.316-4.36Zm12.966,4.963a15.463,15.463,0,0,1-15.4,15.446,29.82,29.82,0,0,0,1.3-3.68,11.863,11.863,0,0,0,10.494-11.768V30.4a6.039,6.039,0,0,0-6.032-6.032H137.3v-3.6h3.333a9.644,9.644,0,0,1,9.633,9.633Z" transform="translate(-59.5 0)"/>
          <path id="Path_8662" data-name="Path 8662" d="M218.934,94.388a4.663,4.663,0,0,0-2.584-7.953l-5.18-.753a1.061,1.061,0,0,1-.8-.58l-2.316-4.694a4.663,4.663,0,0,0-8.362,0L197.376,85.1a1.061,1.061,0,0,1-.8.58l-5.18.753a4.663,4.663,0,0,0-2.584,7.953l3.748,3.654a1.062,1.062,0,0,1,.305.939l-.885,5.159a4.657,4.657,0,0,0,6.766,4.915l4.633-2.436a1.059,1.059,0,0,1,.987,0L209,109.055a4.663,4.663,0,0,0,6.765-4.915l-.885-5.159a1.061,1.061,0,0,1,.305-.939Zm-6.262,1.074a4.661,4.661,0,0,0-1.341,4.127l.885,5.159a1.061,1.061,0,0,1-1.539,1.118l-4.633-2.436a4.661,4.661,0,0,0-4.34,0l-4.633,2.436a1.061,1.061,0,0,1-1.539-1.118l.885-5.159a4.662,4.662,0,0,0-1.341-4.127l-3.748-3.653a1.061,1.061,0,0,1,.588-1.81l5.18-.753a4.661,4.661,0,0,0,3.511-2.551L202.922,82a1.061,1.061,0,0,1,1.9,0l2.316,4.694a4.662,4.662,0,0,0,3.511,2.551l5.18.753a1.061,1.061,0,0,1,.588,1.81Z" transform="translate(-156.69 -59.126)"/>
        </g>
      </g>
      <path id="Path_9109" data-name="Path 9109" d="M6.884-10.192V0H4.067V-6.679a8.562,8.562,0,0,1-1.323.841,10.332,10.332,0,0,1-1.6.615V-7.506a6.772,6.772,0,0,0,2.208-1.1,4.49,4.49,0,0,0,1.23-1.586Z" transform="translate(144 950)" fill="#101112"/>
    </g>
  </g>
</svg>
