<svg xmlns="http://www.w3.org/2000/svg" xmlns:xlink="http://www.w3.org/1999/xlink" width="110" height="110" viewBox="0 0 110 110">
  <defs>
    <clipPath id="clip-Artboard_4">
      <rect width="110" height="110"/>
    </clipPath>
  </defs>
  <g id="Artboard_4" data-name="Artboard – 4" clip-path="url(#clip-Artboard_4)">
    <g id="interview" transform="translate(3.598 5.67)">
      <g id="Group_4025" data-name="Group 4025" transform="translate(1.535 1.865)">
        <g id="Group_4018" data-name="Group 4018" transform="translate(12.985)">
          <g id="Group_4017" data-name="Group 4017">
            <path id="Path_9213" data-name="Path 9213" d="M95.089,7.83H93.224A22.276,22.276,0,0,0,70.948,30.106V52.531h46.417V30.106A22.276,22.276,0,0,0,95.089,7.83Z" transform="translate(-70.948 -7.83)" fill="#365e7d"/>
            <path id="Path_9214" data-name="Path 9214" d="M99.205,8.218A22.275,22.275,0,0,0,81.047,30.111V52.537h-10.1V30.111A22.275,22.275,0,0,1,93.225,7.836h1.864a22.126,22.126,0,0,1,4.117.382Z" transform="translate(-70.948 -7.835)" fill="#2b4d66"/>
          </g>
          <path id="Path_9215" data-name="Path 9215" d="M123.471,263.592v11.35H81.285v-11.35a17.23,17.23,0,0,1,17.23-17.23h7.726a17.235,17.235,0,0,1,17.23,17.23Z" transform="translate(-79.17 -197.546)" fill="#ff7780"/>
          <path id="Path_9216" data-name="Path 9216" d="M106.838,246.375a17.226,17.226,0,0,0-16.632,17.218v11.35H81.285v-11.35a17.23,17.23,0,0,1,17.23-17.23h7.726C106.442,246.363,106.64,246.365,106.838,246.375Z" transform="translate(-79.17 -197.547)" fill="#f26b74"/>
          <path id="Path_9217" data-name="Path 9217" d="M149.092,248.519v6.641a7.087,7.087,0,0,1-7.087,7.084H131.747a7.087,7.087,0,0,1-7.087-7.084v-6.641a17.157,17.157,0,0,1,8.353-2.157h7.726A17.15,17.15,0,0,1,149.092,248.519Z" transform="translate(-113.668 -197.546)" fill="#ffddce"/>
          <path id="Path_9218" data-name="Path 9218" d="M149.092,248.519v.071a14.619,14.619,0,0,1-24.432,0v-.069a17.157,17.157,0,0,1,8.353-2.157h7.726A17.151,17.151,0,0,1,149.092,248.519Z" transform="translate(-113.668 -197.546)" fill="#ffcbbe"/>
          <path id="Path_9219" data-name="Path 9219" d="M142.153,93.4v16.144a14.621,14.621,0,1,1-29.241,0v-15.9s13.549.488,19.9-5.863C132.813,87.782,135.907,93.4,142.153,93.4Z" transform="translate(-104.324 -71.42)" fill="#ffddce"/>
          <path id="Path_9220" data-name="Path 9220" d="M130.3,145.643a14.633,14.633,0,0,1-17.389-14.36v-15.9a42.031,42.031,0,0,0,5.537-.272v16.17A14.623,14.623,0,0,0,130.3,145.643Z" transform="translate(-104.325 -93.157)" fill="#ffcbbe"/>
        </g>
        <path id="Path_9221" data-name="Path 9221" d="M40.664,391.109h87.927v16.524H40.664Z" transform="translate(-33.877 -312.67)" fill="#e7a561"/>
        <path id="Path_9222" data-name="Path 9222" d="M40.664,391.109h87.927v6.308H40.664Z" transform="translate(-33.877 -312.67)" fill="#e49542"/>
        <path id="Path_9223" data-name="Path 9223" d="M40.664,391.109h5.444v16.524H40.664Z" transform="translate(-33.877 -312.67)" fill="#e49542"/>
        <path id="Path_9224" data-name="Path 9224" d="M105.345,374.568H11.367a3.867,3.867,0,1,1,0-7.734h93.978a3.867,3.867,0,1,1,0,7.734Z" transform="translate(-7.5 -293.363)" fill="#e7a561"/>
        <path id="Path_9225" data-name="Path 9225" d="M20.381,374.564H11.368a3.867,3.867,0,0,1,0-7.734h9.013a3.867,3.867,0,0,0,0,7.734Z" transform="translate(-7.5 -293.36)" fill="#e49542"/>
        <g id="Group_4020" data-name="Group 4020" transform="translate(73.411 4.236)">
          <g id="Group_4019" data-name="Group 4019">
            <circle id="Ellipse_147" data-name="Ellipse 147" cx="8.439" cy="8.439" r="8.439" transform="translate(0 0.001)" fill="#b3e59f"/>
            <path id="Path_9226" data-name="Path 9226" d="M376.591,45.182a8.439,8.439,0,1,1,0-16.427,8.44,8.44,0,0,0,0,16.427Z" transform="translate(-366.211 -28.529)" fill="#95d6a4"/>
          </g>
        </g>
        <g id="Group_4022" data-name="Group 4022" transform="translate(73.411 27.714)">
          <g id="Group_4021" data-name="Group 4021">
            <circle id="Ellipse_148" data-name="Ellipse 148" cx="8.439" cy="8.439" r="8.439" transform="translate(0 0.001)" fill="#ffe36f"/>
            <path id="Path_9227" data-name="Path 9227" d="M376.591,159.9a8.439,8.439,0,1,1,0-16.427,8.44,8.44,0,0,0,0,16.427Z" transform="translate(-366.211 -143.25)" fill="#ffc86f"/>
          </g>
        </g>
        <g id="Group_4024" data-name="Group 4024" transform="translate(73.411 51.192)">
          <g id="Group_4023" data-name="Group 4023">
            <circle id="Ellipse_149" data-name="Ellipse 149" cx="8.439" cy="8.439" r="8.439" transform="translate(0 0.001)" fill="#97e9f4"/>
            <path id="Path_9228" data-name="Path 9228" d="M376.591,274.624a8.439,8.439,0,1,1,0-16.427,8.44,8.44,0,0,0,0,16.427Z" transform="translate(-366.211 -257.971)" fill="#73ccd8"/>
          </g>
        </g>
      </g>
      <g id="Group_4026" data-name="Group 4026" transform="translate(0 0.33)">
        <path id="Path_9229" data-name="Path 9229" d="M159.358,203.027a8.4,8.4,0,0,0,5.982-2.478,1.535,1.535,0,0,0-2.171-2.171,5.39,5.39,0,0,1-7.623,0,1.535,1.535,0,0,0-2.171,2.171A8.4,8.4,0,0,0,159.358,203.027Z" transform="translate(-121.63 -157.49)"/>
        <path id="Path_9230" data-name="Path 9230" d="M158.822,147.536A1.535,1.535,0,0,0,160.357,146v-3.31a1.535,1.535,0,1,0-3.07,0V146A1.535,1.535,0,0,0,158.822,147.536Z" transform="translate(-125.098 -112.336)"/>
        <path id="Path_9231" data-name="Path 9231" d="M200.608,147.536A1.535,1.535,0,0,0,202.143,146v-3.31a1.535,1.535,0,1,0-3.07,0V146A1.535,1.535,0,0,0,200.608,147.536Z" transform="translate(-158.332 -112.336)"/>
        <path id="Path_9232" data-name="Path 9232" d="M99.38,73.8H60.355v-5.89A18.792,18.792,0,0,0,49.6,50.938a16.255,16.255,0,0,0,2.1-2.838h9.245a1.535,1.535,0,0,0,1.535-1.535V24.141A23.838,23.838,0,0,0,38.661.33H36.795A23.68,23.68,0,0,0,23.637,4.3a1.535,1.535,0,1,0,1.7,2.556A20.62,20.62,0,0,1,36.795,3.4h1.866A20.765,20.765,0,0,1,59.4,24.141V45.03H53.075a16.087,16.087,0,0,0,.809-5.04V23.846a1.535,1.535,0,0,0-1.535-1.535c-5.231,0-7.888-4.632-8-4.824a1.535,1.535,0,0,0-2.43-.345c-5.8,5.8-18.632,5.419-18.76,5.415a1.535,1.535,0,0,0-1.59,1.534v15.9a16.091,16.091,0,0,0,.809,5.04H16.055V24.141a20.756,20.756,0,0,1,5.032-13.549,1.535,1.535,0,0,0-2.325-2,23.829,23.829,0,0,0-5.777,15.553V46.565A1.535,1.535,0,0,0,14.52,48.1h9.244a16.25,16.25,0,0,0,2.1,2.837A18.778,18.778,0,0,0,15.1,67.911V73.8H5.4a5.4,5.4,0,1,0,0,10.8H6.786V97.126a1.535,1.535,0,0,0,1.535,1.535H96.25a1.535,1.535,0,0,0,1.535-1.535V92.007a1.535,1.535,0,1,0-3.07,0v3.583H9.856V84.606H94.715v7.578a1.535,1.535,0,0,0,3.07,0V84.6h1.6a5.4,5.4,0,1,0,0-10.8ZM27.047,53.769q.672-.324,1.375-.584a16.1,16.1,0,0,0,18.612,0q.7.26,1.375.585V59.48a5.557,5.557,0,0,1-5.552,5.55H32.6a5.557,5.557,0,0,1-5.552-5.55Zm-2.4-28.142c3.6-.074,12.441-.724,18.09-5.117a12.632,12.632,0,0,0,8.081,4.771V39.99a13.086,13.086,0,1,1-26.172,0ZM18.169,67.911a15.641,15.641,0,0,1,5.77-12.158l.038-.03v3.757A8.63,8.63,0,0,0,32.6,68.1H42.857a8.63,8.63,0,0,0,8.622-8.619V55.726l.038.03a15.631,15.631,0,0,1,5.769,12.155V73.8H18.169ZM99.38,81.535H5.4a2.332,2.332,0,1,1,0-4.664H99.38a2.332,2.332,0,1,1,0,4.664Z" transform="translate(0 -0.33)"/>
        <path id="Path_9233" data-name="Path 9233" d="M368.684,32.518a9.966,9.966,0,0,0,7.26-16.8l1.807-3a1.535,1.535,0,1,0-2.629-1.585L373.5,13.817a9.972,9.972,0,1,0-4.821,18.7Zm0-16.878a6.858,6.858,0,0,1,3.235.807l-3.426,5.679-1.277-1.572a1.535,1.535,0,1,0-2.382,1.936l2.654,3.267a1.535,1.535,0,0,0,1.191.567c.036,0,.071,0,.107,0a1.535,1.535,0,0,0,1.207-.738l4.276-7.09a6.9,6.9,0,1,1-5.586-2.853Z" transform="translate(-285.299 -8.333)"/>
        <path id="Path_9234" data-name="Path 9234" d="M368.684,147.239a9.966,9.966,0,0,0,7.26-16.8l1.807-3a1.535,1.535,0,1,0-2.629-1.585l-1.618,2.682a9.972,9.972,0,1,0-4.821,18.7Zm0-16.878a6.858,6.858,0,0,1,3.235.807l-3.426,5.68-1.277-1.572a1.535,1.535,0,1,0-2.382,1.936l2.654,3.267a1.535,1.535,0,0,0,1.191.567c.036,0,.071,0,.107,0a1.535,1.535,0,0,0,1.207-.738l4.276-7.09a6.9,6.9,0,1,1-5.586-2.853Z" transform="translate(-285.299 -99.576)"/>
        <path id="Path_9235" data-name="Path 9235" d="M368.684,261.959a9.966,9.966,0,0,0,7.26-16.8l1.807-3a1.535,1.535,0,1,0-2.629-1.585l-1.618,2.682a9.972,9.972,0,1,0-4.821,18.7Zm0-16.878a6.858,6.858,0,0,1,3.235.807l-3.426,5.68L367.216,250a1.535,1.535,0,1,0-2.382,1.936l2.654,3.267a1.535,1.535,0,0,0,1.191.567c.036,0,.071,0,.107,0a1.535,1.535,0,0,0,1.207-.738l4.276-7.09a6.9,6.9,0,1,1-5.586-2.853Z" transform="translate(-285.299 -190.819)"/>
        <path id="Path_9236" data-name="Path 9236" d="M24.848,5.287a32.481,32.481,0,0,0-5.78,5.292" transform="translate(0 -0.33)" fill="none" stroke="#000" stroke-width="3"/>
      </g>
    </g>
  </g>
</svg>
